<svg width="50.000000" height="50.000000" viewBox="0 0 50 50" fill="none" xmlns="http://www.w3.org/2000/svg" xmlns:xlink="http://www.w3.org/1999/xlink">
	<desc>
			Created with Pixso.
	</desc>
	<defs>
		<clipPath id="clip42_609">
			<rect id="753941_lawyer_judge_justice_law_legal_icon (1) 1" rx="0.000000" width="49.000000" height="49.000000" transform="translate(0.500000 0.500000)" fill="white" fill-opacity="0"/>
		</clipPath>
	</defs>
	<rect id="753941_lawyer_judge_justice_law_legal_icon (1) 1" rx="0.000000" width="49.000000" height="49.000000" transform="translate(0.500000 0.500000)" fill="#FFFFFF" fill-opacity="0"/>
	<g clip-path="url(#clip42_609)">
		<path id="Vector" d="M49.81 20.85L49.79 20.8L49.8 20.8L49.65 20.5L41.35 4.7C41.12 4.29 40.34 3.08 38.82 3.08L11.03 3.08C9.33 3.08 8.49 4.75 8.47 4.79L0.32 20.3L0.32 20.31L0.26 20.42C0.12 20.69 -0.18 21.42 0.12 22.15C2.19 25.51 5.88 27.76 10.12 27.76C14.26 27.76 17.87 25.6 19.97 22.36C20.29 21.63 19.84 20.71 19.84 20.71L12.13 6.03L12.06 5.89C11.95 5.65 11.86 5.19 12.69 5.19L22.79 5.19C23.08 5.2 23.88 5.34 23.88 6.68L23.88 41.46C23.86 41.8 23.73 42.5 23.01 42.94L17.95 46.07C17.95 46.07 16.63 46.91 17.95 46.91L32.31 46.91C33.29 46.91 32.31 46.23 32.31 46.23L27.1 43.04C27.1 43.04 27.1 43.04 27.1 43.04C26.24 42.51 26.08 41.85 26.06 41.52L26.06 6.53C26.06 5.32 26.92 5.2 27.23 5.19L37.11 5.19C37.37 5.2 38.16 5.28 37.66 6.23L29.92 20.96C29.92 20.96 29.68 21.54 29.95 22.18C32.02 25.52 35.7 27.76 39.92 27.76C44.16 27.76 47.85 25.52 49.92 22.16C50.12 21.62 49.89 21.02 49.81 20.85ZM17.34 20.39L17.34 20.39L17.44 20.59C17.61 20.93 17.86 21.58 17.34 21.58L2.64 21.58C2.16 21.58 2.25 21.13 2.41 20.77L2.64 20.33L2.64 20.32L9.65 6.99C9.65 6.99 10.01 6.43 10.3 6.99L17.34 20.39ZM32.48 20.55L32.58 20.35C32.58 20.35 32.59 20.35 32.59 20.35L39.43 7.31C39.44 7.29 39.91 6.41 40.38 7.31L47.21 20.31C47.35 20.59 47.78 21.58 46.77 21.58L33.13 21.58C33.13 21.58 33.13 21.58 33.13 21.58C32.14 21.58 32.32 20.9 32.48 20.55Z" fill="#241F20" fill-opacity="1.000000" fill-rule="nonzero"/>
	</g>
</svg>
