<svg width="50.000000" height="50.000000" viewBox="0 0 50 50" fill="none" xmlns="http://www.w3.org/2000/svg" xmlns:xlink="http://www.w3.org/1999/xlink">
	<desc>
			Created with Pixso.
	</desc>
	<defs>
		<clipPath id="clip42_615">
			<rect id="Layer_1" rx="0.000000" width="49.000000" height="49.000000" transform="translate(0.500000 0.500000)" fill="white" fill-opacity="0"/>
		</clipPath>
	</defs>
	<rect id="Layer_1" rx="0.000000" width="49.000000" height="49.000000" transform="translate(0.500000 0.500000)" fill="#FFFFFF" fill-opacity="0"/>
	<g clip-path="url(#clip42_615)">
		<path id="Vector" d="M39.06 20.31L39.06 14.06C39.06 6.29 32.76 0 25 0C17.23 0 10.93 6.29 10.93 14.06L10.93 20.31C8.34 20.31 6.25 22.41 6.25 25L6.25 29.68L6.25 31.25L6.25 34.37L6.25 35.93C6.25 43.7 12.54 50 20.31 50L29.68 50C37.45 50 43.75 43.7 43.75 35.93L43.75 34.37L43.75 31.25L43.75 29.68L43.75 25C43.75 22.4 41.64 20.31 39.06 20.31ZM14.06 14.06C14.06 8.02 18.95 3.12 25 3.12C31.04 3.12 35.93 8.02 35.93 14.06L35.93 20.31L32.81 20.31L32.81 14.06C32.81 9.75 29.31 6.25 25 6.25C20.68 6.25 17.18 9.75 17.18 14.06L17.18 20.31L14.06 20.31L14.06 14.06ZM31.25 14.06L31.25 14.06L31.25 20.31L18.75 20.31L18.75 14.06L18.75 14.06C18.75 10.61 21.54 7.81 25 7.81C28.45 7.81 31.25 10.61 31.25 14.06ZM40.62 29.68L40.62 31.25L40.62 34.37L40.62 35.93C40.62 41.96 35.71 46.87 29.68 46.87L20.31 46.87C14.28 46.87 9.37 41.96 9.37 35.93L9.37 34.37L9.37 31.25L9.37 29.68L9.37 25C9.37 24.13 10.07 23.43 10.93 23.43C11.97 23.43 13.02 23.43 14.06 23.43L35.93 23.43C36.97 23.43 38.01 23.43 39.06 23.43C39.92 23.43 40.62 24.13 40.62 25L40.62 29.68Z" fill="#333333" fill-opacity="1.000000" fill-rule="nonzero"/>
		<path id="Vector" d="M25 29.68C23.27 29.68 21.87 31.08 21.87 32.81C21.87 33.76 22.39 35.56 22.91 36.98C23.34 38.14 23.87 39.05 25 39.05C26.22 39.05 26.65 38.15 27.08 37C27.61 35.57 28.12 33.76 28.12 32.81C28.12 31.08 26.72 29.68 25 29.68Z" fill="#333333" fill-opacity="1.000000" fill-rule="nonzero"/>
	</g>
</svg>
