<svg width="40.000000" height="40.000000" viewBox="0 0 40 40" fill="none" xmlns="http://www.w3.org/2000/svg" xmlns:xlink="http://www.w3.org/1999/xlink">
	<desc>
			Created with Pixso.
	</desc>
	<defs>
		<clipPath id="clip16_337">
			<rect id="smile 2" rx="0.000000" width="39.000000" height="39.000000" transform="translate(0.500000 0.500000)" fill="white" fill-opacity="0"/>
		</clipPath>
		<linearGradient x1="20.000166" y1="5.000000" x2="20.000166" y2="35.000004" id="paint_linear_16_339_0" gradientUnits="userSpaceOnUse">
			<stop stop-color="#000000"/>
			<stop offset="1.000000" stop-color="#000000"/>
		</linearGradient>
	</defs>
	<rect id="smile 2" rx="0.000000" width="39.000000" height="39.000000" transform="translate(0.500000 0.500000)" fill="#FFFFFF" fill-opacity="0"/>
	<g clip-path="url(#clip16_337)">
		<path id="Vector" d="M18.33 5L21.66 5C23.63 5 25.58 5.38 27.4 6.14C29.22 6.89 30.88 8 32.27 9.39C33.66 10.78 34.77 12.43 35.52 14.25C36.27 16.07 36.66 18.03 36.66 20C36.66 21.96 36.27 23.92 35.52 25.74C34.77 27.56 33.66 29.21 32.27 30.6C30.88 31.99 29.22 33.1 27.4 33.85C25.58 34.61 23.63 35 21.66 35L10 35C8.23 35 6.53 34.29 5.28 33.04C4.03 31.79 3.33 30.1 3.33 28.33L3.33 20C3.33 16.02 4.91 12.2 7.72 9.39C10.54 6.58 14.35 5 18.33 5ZM14.24 22.47C14.01 22.24 13.7 22.1 13.37 22.09C13.04 22.08 12.73 22.21 12.49 22.43C12.25 22.65 12.1 22.96 12.09 23.29C12.08 23.62 12.2 23.94 12.42 24.18C14.67 26.59 17.27 27.91 20 27.91C22.72 27.91 25.32 26.59 27.57 24.18C27.79 23.94 27.91 23.62 27.9 23.29C27.89 22.96 27.74 22.65 27.5 22.43C27.27 22.21 26.95 22.08 26.62 22.09C26.29 22.1 25.98 22.24 25.75 22.47C23.83 24.52 21.85 25.41 20 25.41C18.14 25.41 16.16 24.52 14.24 22.47Z" fill="url(#paint_linear_16_339_0)" fill-opacity="1.000000" fill-rule="evenodd"/>
	</g>
</svg>
