<svg width="40.000000" height="48.000000" viewBox="0 0 40 48" fill="none" xmlns="http://www.w3.org/2000/svg" xmlns:xlink="http://www.w3.org/1999/xlink">
	<desc>
			Created with Pixso.
	</desc>
	<defs/>
	<path id="Vector" d="M30.83 19.57C33.33 17.97 35 15.18 35 12C35 7.03 30.96 3 26 3C25.14 3 24.29 3.12 23.46 3.37C21.63 1.31 18.97 0 16 0C10.48 0 6 4.48 6 10C6 13.43 7.73 16.46 10.37 18.26C4.46 19.48 0 24.72 0 31L0 48L32 48L32 44L40 44L40 32C40 26.16 36.13 21.21 30.83 19.57ZM24.72 5.12C25.14 5.04 25.57 5 26 5C29.85 5 33 8.14 33 12C33 15.85 29.85 19 26 19C24.62 19 23.3 18.6 22.17 17.85C22.18 17.84 22.2 17.83 22.21 17.81C23.07 17.13 23.81 16.31 24.41 15.38C24.43 15.35 24.45 15.31 24.47 15.27C24.64 15 24.8 14.73 24.94 14.44C24.97 14.39 24.99 14.33 25.02 14.28C25.15 14.01 25.26 13.73 25.37 13.45C25.39 13.38 25.42 13.32 25.44 13.25C25.54 12.98 25.62 12.7 25.69 12.41C25.71 12.33 25.73 12.26 25.75 12.19C25.81 11.9 25.86 11.62 25.9 11.33C25.91 11.25 25.92 11.17 25.93 11.09C25.97 10.73 26 10.37 26 10C26 9.6 25.97 9.21 25.92 8.83C25.91 8.7 25.88 8.59 25.87 8.46C25.82 8.19 25.77 7.93 25.71 7.67C25.68 7.54 25.65 7.42 25.61 7.29C25.53 7 25.44 6.72 25.33 6.44C25.3 6.36 25.28 6.29 25.25 6.21C25.1 5.84 24.92 5.48 24.73 5.13C24.72 5.13 24.72 5.12 24.72 5.12ZM8 10C8 5.58 11.58 2 16 2C18.47 2 20.69 3.13 22.16 4.9L22.22 4.98C22.27 5.04 22.31 5.11 22.36 5.17C22.87 5.84 23.26 6.57 23.53 7.33C23.55 7.39 23.57 7.44 23.59 7.49C23.71 7.85 23.8 8.22 23.86 8.59C23.88 8.67 23.89 8.75 23.9 8.83C23.96 9.21 24 9.6 24 10C24 10.32 23.97 10.65 23.93 10.97C23.92 11.04 23.91 11.12 23.9 11.19C23.85 11.46 23.8 11.72 23.74 11.98C23.72 12.03 23.71 12.09 23.7 12.14C23.51 12.78 23.26 13.4 22.92 13.98C22.92 13.99 22.91 14 22.9 14.01C22.74 14.29 22.56 14.55 22.37 14.81C22.35 14.83 22.34 14.86 22.32 14.88C21.91 15.41 21.43 15.89 20.9 16.3C20.87 16.32 20.84 16.34 20.82 16.37C20.56 16.56 20.3 16.74 20.02 16.9C19.99 16.92 19.96 16.94 19.92 16.96L19.77 17.05C18.64 17.65 17.36 18 16 18C11.58 18 8 14.41 8 10ZM30 46L2 46L2 31C2 24.93 6.93 20 13 20L19 20C20.49 20 21.92 20.3 23.22 20.84L23.41 20.93C23.52 20.98 23.63 21.03 23.74 21.08C24.03 21.23 24.32 21.38 24.6 21.55C24.73 21.62 24.86 21.7 24.98 21.78C25.11 21.86 25.24 21.96 25.37 22.05C25.5 22.14 25.63 22.24 25.76 22.34C25.88 22.43 25.99 22.52 26.1 22.61C26.27 22.76 26.43 22.91 26.6 23.06C26.72 23.18 26.84 23.31 26.96 23.43C27.1 23.58 27.23 23.72 27.36 23.87C27.46 23.98 27.55 24.1 27.64 24.21C27.74 24.34 27.84 24.47 27.93 24.61C28.02 24.73 28.11 24.85 28.19 24.98C28.31 25.15 28.41 25.33 28.52 25.51C28.62 25.7 28.73 25.89 28.82 26.08C28.9 26.22 28.97 26.37 29.03 26.51C29.1 26.66 29.16 26.8 29.22 26.95C29.28 27.11 29.33 27.27 29.39 27.43C29.44 27.56 29.49 27.69 29.53 27.83C29.61 28.11 29.68 28.39 29.75 28.68C29.77 28.79 29.79 28.9 29.81 29.01C29.85 29.24 29.89 29.46 29.91 29.68C29.93 29.79 29.94 29.9 29.95 30C29.97 30.33 30 30.66 30 31L30 44L30 46ZM38 42L32 42L32 31C32 30.52 31.97 30.05 31.92 29.59C31.9 29.48 31.88 29.37 31.87 29.26C31.82 28.91 31.76 28.55 31.69 28.21C31.66 28.09 31.63 27.98 31.6 27.87C31.51 27.53 31.42 27.2 31.31 26.87C31.27 26.76 31.23 26.65 31.19 26.54C31.07 26.22 30.95 25.9 30.81 25.59C30.75 25.48 30.7 25.37 30.64 25.26C30.5 24.96 30.34 24.67 30.17 24.38C30.1 24.27 30.04 24.17 29.97 24.06C29.79 23.78 29.6 23.51 29.41 23.24C29.33 23.14 29.26 23.04 29.18 22.94C28.96 22.67 28.73 22.4 28.5 22.15C28.43 22.07 28.36 21.99 28.29 21.92C27.97 21.6 27.64 21.29 27.3 21C33.22 21.16 38 26.03 38 32L38 42Z" fill="#000000" fill-opacity="1.000000" fill-rule="nonzero"/>
</svg>
