<svg width="31.150879" height="38.267578" viewBox="0 0 31.1509 38.2676" fill="none" xmlns="http://www.w3.org/2000/svg" xmlns:xlink="http://www.w3.org/1999/xlink">
	<desc>
			Created with Pixso.
	</desc>
	<defs/>
	<path id="Vector" d="M26.01 20.35C25.97 15.51 29.97 13.16 30.16 13.05C27.89 9.75 24.37 9.29 23.14 9.26C20.19 8.95 17.32 11.02 15.82 11.02C14.29 11.02 11.97 9.29 9.47 9.34C6.26 9.39 3.26 11.25 1.61 14.13C-1.79 20.02 0.75 28.66 4 33.42C5.63 35.75 7.54 38.35 10.03 38.26C12.47 38.16 13.38 36.71 16.32 36.71C19.24 36.71 20.1 38.26 22.64 38.2C25.26 38.16 26.9 35.86 28.48 33.51C30.36 30.84 31.12 28.21 31.15 28.08C31.09 28.06 26.06 26.14 26.01 20.35ZM21.21 6.13C22.52 4.49 23.42 2.26 23.17 0C21.27 0.08 18.9 1.31 17.53 2.91C16.32 4.32 15.24 6.64 15.52 8.82C17.65 8.98 19.84 7.74 21.21 6.13Z" fill="#FFFFFF" fill-opacity="1.000000" fill-rule="nonzero"/>
</svg>
